HIERARCHY
ROOT Hips
{
    OFFSET   0.000000   0.000000   0.000000
    CHANNELS 6 Xposition Yposition Zposition Zrotation Xrotation Yrotation
    JOINT Chest
    {
        OFFSET   0.000000   8.007230   0.000000
        CHANNELS 3 Zrotation Xrotation Yrotation
        JOINT Chest2
        {
            OFFSET   0.000000  22.077100   0.000000
            CHANNELS 3 Zrotation Xrotation Yrotation
            JOINT Neck
            {
                OFFSET   0.000000  23.254800  -0.000021
                CHANNELS 3 Zrotation Xrotation Yrotation
                JOINT Head
                {
                    OFFSET   0.000000  14.370000   1.956610
                    CHANNELS 3 Zrotation Xrotation Yrotation
                    End Site
                    {
                        OFFSET   0.000000  19.566000   0.000000
                    }
                }
            }
            JOINT LeftCollar
            {
                OFFSET   3.911900  19.017000  -0.467063
                CHANNELS 3 Zrotation Xrotation Yrotation
                JOINT LeftShoulder
                {
                    OFFSET  10.383700   0.000000   0.000000
                    CHANNELS 3 Zrotation Xrotation Yrotation
                    JOINT LeftElbow
                    {
                        OFFSET  26.662100   0.001529   0.000325
                        CHANNELS 3 Zrotation Xrotation Yrotation
                        JOINT LeftWrist
                        {
                            OFFSET  28.869000  -0.000011  -0.000096
                            CHANNELS 3 Zrotation Xrotation Yrotation
                            JOINT LeftFinger0
                            {
                                OFFSET   2.044650  -2.323460   3.252850
                                CHANNELS 3 Zrotation Xrotation Yrotation
                                JOINT LeftFinger01
                                {
                                    OFFSET   3.088130   0.000000   0.000000
                                    CHANNELS 3 Zrotation Xrotation Yrotation
                                    JOINT LeftFinger02
                                    {
                                        OFFSET   2.639460   0.000000   0.000000
                                        CHANNELS 3 Zrotation Xrotation Yrotation
                                        End Site
                                        {
                                            OFFSET   2.582190   0.000000   0.000000
                                        }
                                    }
                                }
                            }
                            JOINT LeftFinger1
                            {
                                OFFSET   8.364480   0.000000   3.252850
                                CHANNELS 3 Zrotation Xrotation Yrotation
                                JOINT LeftFinger11
                                {
                                    OFFSET   4.646930   0.000000   0.000000
                                    CHANNELS 3 Zrotation Xrotation Yrotation
                                    JOINT LeftFinger12
                                    {
                                        OFFSET   2.323460   0.000000   0.000000
                                        CHANNELS 3 Zrotation Xrotation Yrotation
                                        End Site
                                        {
                                            OFFSET   2.273050   0.000000   0.000000
                                        }
                                    }
                                }
                            }
                            JOINT LeftFinger2
                            {
                                OFFSET   8.364480   0.000016   1.078090
                                CHANNELS 3 Zrotation Xrotation Yrotation
                                JOINT LeftFinger21
                                {
                                    OFFSET   5.111620   0.000000   0.000000
                                    CHANNELS 3 Zrotation Xrotation Yrotation
                                    JOINT LeftFinger22
                                    {
                                        OFFSET   2.788160   0.000017   0.000000
                                        CHANNELS 3 Zrotation Xrotation Yrotation
                                        End Site
                                        {
                                            OFFSET   2.727660   0.000000   0.000000
                                        }
                                    }
                                }
                            }
                            JOINT LeftFinger3
                            {
                                OFFSET   7.899780   0.000015  -1.078090
                                CHANNELS 3 Zrotation Xrotation Yrotation
                                JOINT LeftFinger31
                                {
                                    OFFSET   4.646920   0.000000   0.000000
                                    CHANNELS 3 Zrotation Xrotation Yrotation
                                    JOINT LeftFinger32
                                    {
                                        OFFSET   2.323470   0.000000   0.000000
                                        CHANNELS 3 Zrotation Xrotation Yrotation
                                        End Site
                                        {
                                            OFFSET   2.273050   0.000000   0.000000
                                        }
                                    }
                                }
                            }
                            JOINT LeftFinger4
                            {
                                OFFSET   7.435090   0.000000  -3.252850
                                CHANNELS 3 Zrotation Xrotation Yrotation
                                JOINT LeftFinger41
                                {
                                    OFFSET   3.717550   0.000000   0.000000
                                    CHANNELS 3 Zrotation Xrotation Yrotation
                                    JOINT LeftFinger42
                                    {
                                        OFFSET   1.858760   0.000000   0.000000
                                        CHANNELS 3 Zrotation Xrotation Yrotation
                                        End Site
                                        {
                                            OFFSET   1.818440   0.000000   0.000000
                                        }
                                    }
                                }
                            }
                        }
                    }
                }
            }
            JOINT RightCollar
            {
                OFFSET  -3.911900  19.017000  -0.467062
                CHANNELS 3 Zrotation Xrotation Yrotation
                JOINT RightShoulder
                {
                    OFFSET -10.383700   0.000015   0.000000
                    CHANNELS 3 Zrotation Xrotation Yrotation
                    JOINT RightElbow
                    {
                        OFFSET -26.662100   0.001341   0.000385
                        CHANNELS 3 Zrotation Xrotation Yrotation
                        JOINT RightWrist
                        {
                            OFFSET -28.869000   0.000025  -0.000080
                            CHANNELS 3 Zrotation Xrotation Yrotation
                            JOINT RightFinger0
                            {
                                OFFSET  -2.044650  -2.323490   3.252850
                                CHANNELS 3 Zrotation Xrotation Yrotation
                                JOINT RightFinger01
                                {
                                    OFFSET  -3.088130   0.000000   0.000000
                                    CHANNELS 3 Zrotation Xrotation Yrotation
                                    JOINT RightFinger02
                                    {
                                        OFFSET  -2.639460   0.000000   0.000000
                                        CHANNELS 3 Zrotation Xrotation Yrotation
                                        End Site
                                        {
                                            OFFSET  -2.582190   0.000000   0.000000
                                        }
                                    }
                                }
                            }
                            JOINT RightFinger1
                            {
                                OFFSET  -8.364480   0.000000   3.252850
                                CHANNELS 3 Zrotation Xrotation Yrotation
                                JOINT RightFinger11
                                {
                                    OFFSET  -4.646930   0.000000   0.000000
                                    CHANNELS 3 Zrotation Xrotation Yrotation
                                    JOINT RightFinger12
                                    {
                                        OFFSET  -2.323470   0.000000   0.000000
                                        CHANNELS 3 Zrotation Xrotation Yrotation
                                        End Site
                                        {
                                            OFFSET  -2.273050   0.000000   0.000000
                                        }
                                    }
                                }
                            }
                            JOINT RightFinger2
                            {
                                OFFSET  -8.364480   0.000000   1.078090
                                CHANNELS 3 Zrotation Xrotation Yrotation
                                JOINT RightFinger21
                                {
                                    OFFSET  -5.111610   0.000000   0.000000
                                    CHANNELS 3 Zrotation Xrotation Yrotation
                                    JOINT RightFinger22
                                    {
                                        OFFSET  -2.788160   0.000000   0.000000
                                        CHANNELS 3 Zrotation Xrotation Yrotation
                                        End Site
                                        {
                                            OFFSET  -2.727660   0.000000   0.000000
                                        }
                                    }
                                }
                            }
                            JOINT RightFinger3
                            {
                                OFFSET  -7.899780   0.000000  -1.078090
                                CHANNELS 3 Zrotation Xrotation Yrotation
                                JOINT RightFinger31
                                {
                                    OFFSET  -4.646920   0.000000   0.000000
                                    CHANNELS 3 Zrotation Xrotation Yrotation
                                    JOINT RightFinger32
                                    {
                                        OFFSET  -2.323470   0.000000   0.000000
                                        CHANNELS 3 Zrotation Xrotation Yrotation
                                        End Site
                                        {
                                            OFFSET  -2.273050   0.000000   0.000000
                                        }
                                    }
                                }
                            }
                            JOINT RightFinger4
                            {
                                OFFSET  -7.435090   0.000000  -3.252850
                                CHANNELS 3 Zrotation Xrotation Yrotation
                                JOINT RightFinger41
                                {
                                    OFFSET  -3.717550   0.000000   0.000000
                                    CHANNELS 3 Zrotation Xrotation Yrotation
                                    JOINT RightFinger42
                                    {
                                        OFFSET  -1.858770   0.000000   0.000000
                                        CHANNELS 3 Zrotation Xrotation Yrotation
                                        End Site
                                        {
                                            OFFSET  -1.818440   0.000000   0.000000
                                        }
                                    }
                                }
                            }
                        }
                    }
                }
            }
        }
    }
    JOINT LeftHip
    {
        OFFSET   9.783010   0.000000   0.000000
        CHANNELS 3 Zrotation Xrotation Yrotation
        JOINT LeftKnee
        {
            OFFSET   0.000070 -41.789100   0.000028
            CHANNELS 3 Zrotation Xrotation Yrotation
            JOINT LeftAnkle
            {
                OFFSET   0.000087 -41.133200  -0.000100
                CHANNELS 3 Zrotation Xrotation Yrotation
                JOINT LeftToe
                {
                    OFFSET   0.000000  -6.358960  14.674500
                    CHANNELS 3 Zrotation Xrotation Yrotation
                    End Site
                    {
                        OFFSET   0.000000   0.000000   3.913200
                    }
                }
            }
        }
    }
    JOINT RightHip
    {
        OFFSET  -9.783020   0.000000   0.000000
        CHANNELS 3 Zrotation Xrotation Yrotation
        JOINT RightKnee
        {
            OFFSET   0.000044 -41.789100  -0.000870
            CHANNELS 3 Zrotation Xrotation Yrotation
            JOINT RightAnkle
            {
                OFFSET  -0.000090 -41.133200  -0.000245
                CHANNELS 3 Zrotation Xrotation Yrotation
                JOINT RightToe
                {
                    OFFSET   0.000000  -6.358960  14.674500
                    CHANNELS 3 Zrotation Xrotation Yrotation
                    End Site
                    {
                        OFFSET   0.000000   0.000000   3.913200
                    }
                }
            }
        }
    }
}
MOTION
Frames: 4
Frame Time:   0.016667
 -1.435610  89.991300   2.348640  -1.052970  -8.386260   2.743650   0.321211   5.409600  -1.472440   0.787965  10.809000  -2.995630   4.988220 -11.089700   0.961811   9.074050 -21.967500  30.558100  -4.955590  -5.304470  -1.448670 -38.190200  21.323700 -77.831200  -7.239450 -11.794800 -114.986000  27.654500 -45.054700  11.492200  67.397100  46.610500 -94.991700 -10.453800  -0.000361   0.000537  -0.226909  -0.001466  -0.000182 -10.092100   3.068310 -16.729200  -8.626690   0.000064  -0.003198  -6.038670  -0.000615  -0.003216 -19.935300   2.117160  -5.805000 -20.042000  -0.002017  -0.002171 -13.348000   0.007284  -0.001280 -10.487900   1.126940  -6.077070 -10.547500  -0.001314   0.000649  -7.024620  -0.001879  -0.001893 -16.388700   1.753350  -5.924360 -24.718400  -0.001742   0.000905 -16.462500  -0.002571   0.000235  11.307900  -0.836444   8.658510  70.305400  15.652000  -1.160360   1.041990  -4.126070  16.005600 -24.054000 -18.037400   1.481710 -36.673100  31.919000  67.585300  32.426400  -0.011014  -0.013827  11.213200  -0.006394  -0.006104  32.326900   1.836230   2.898630  26.487400  -0.031823  -0.026285  18.541100  -0.032181  -0.011533  27.963300  -1.440290  -2.710770  31.981100  -0.058583   0.025176  21.299400  -0.028218   0.030357  27.693300  -5.130240  -9.668410  32.867600  -0.095514   0.147692  21.889700  -0.018351   0.113772  36.871300  -6.611930  -8.727760  56.064600  -0.047482   0.029483  37.339000  -0.013950   0.039716   1.897620   7.583550   0.704695   0.618990   2.387280  12.791500  -6.452860  -3.486840   3.290690   0.000000   0.000000   0.000000   2.926140   6.897090  -8.312440  -0.989365   6.292320  -9.685870  -9.374070  -1.209820  -2.826560   0.000000   0.000000  -0.000000
 -1.456530  89.989600   2.348990  -1.040030  -8.401610   2.752500   0.311879   5.373450  -1.472100   0.767915  10.737000  -2.994130   4.996220 -11.064000   0.961794   9.065930 -21.913700  30.541900  -4.973770  -5.250100  -1.378630 -38.416300  21.357200 -77.902600  -7.269570 -12.625400 -114.065000  27.805900 -45.600400  12.059900  65.938400  46.134700 -93.381700 -10.862300  -0.000414   0.000616  -0.431151  -0.001464  -0.000137 -10.136000   2.998710 -16.346300  -8.635400  -0.000088  -0.003144  -6.044770  -0.000603  -0.003373 -19.785200   2.000330  -5.535420 -19.881600  -0.001815  -0.002143 -13.241200   0.007828  -0.001323 -10.505300   1.075250  -5.787370 -10.558100  -0.001614   0.000529  -7.031710  -0.001775  -0.001326 -16.408000   1.663700  -5.645150 -24.723800  -0.002129   0.000518 -16.466000  -0.002543  -0.000100  11.338300  -0.772330   8.598020  70.315400  15.504500  -1.212100   1.026350  -4.062060  15.872400 -24.422200 -18.147400   1.473390 -36.604100  31.919900  67.606600  32.530300  -0.004646  -0.008091  11.265200  -0.002587  -0.001683  32.499900   1.838560   2.887100  26.628700  -0.045767  -0.021122  18.640100  -0.037621  -0.005333  28.012500  -1.439710  -2.708160  32.305100  -0.060421   0.005317  21.515200  -0.036292   0.017433  27.745500  -5.125610  -9.638940  33.238600  -0.077408   0.088873  22.136900  -0.025644   0.072862  37.081200  -6.626560  -8.681140  56.377100  -0.038447   0.065381  37.547100   0.005282   0.050799   1.891780   7.592470   0.688314   0.623197   2.404350  12.813000  -6.448880  -3.492400   3.282330  -0.000000   0.000000   0.000000   2.934910   6.929220  -8.340290  -0.992588   6.263480  -9.703850  -9.379230  -1.217690  -2.793170  -0.000000   0.000000   0.000000
 -1.477680  89.988400   2.349170  -1.025190  -8.435940   2.771110   0.297416   5.353820  -1.470270   0.738269  10.698100  -2.988260   5.002160 -11.060300   0.961977   9.094120 -21.906100  30.515700  -4.973290  -5.176460  -1.351870 -38.444900  21.417000 -78.087600  -7.285640 -13.571700 -113.048000  27.751400 -46.550100  12.736200  64.813800  45.772400 -92.260700 -11.084100  -0.000469   0.000696  -0.542050  -0.001461  -0.000090 -10.179000   2.952900 -15.963800  -8.666170  -0.000249  -0.003082  -6.066310  -0.000581  -0.003531 -19.744800   1.942850  -5.391330 -19.836400  -0.001610  -0.002111 -13.211100   0.008340  -0.001373 -10.517100   1.050130  -5.633470 -10.568700  -0.001847   0.000474  -7.038790  -0.001664  -0.000780 -16.429100   1.626070  -5.494600 -24.761200  -0.002501   0.000238 -16.490900  -0.002508  -0.000353  11.373300  -0.704930   8.503930  70.322700  15.339100  -1.277750   1.008060  -3.962040  15.834800 -24.740000 -18.278000   1.465240 -36.540000  31.925200  67.654600  32.608500   0.003859  -0.002355  11.304300   0.002562   0.005183  32.662500   1.850130   2.883270  26.761900  -0.059711  -0.013659  18.733300  -0.042193   0.002007  28.056800  -1.435660  -2.691170  32.604600  -0.060683  -0.009303  21.714700  -0.039842   0.005953  27.790500  -5.121250  -9.612960  33.568800  -0.048889   0.018922  22.356800  -0.028950   0.020601  37.260300  -6.638290  -8.640630  56.643500  -0.026859   0.084874  37.724600   0.017772   0.054198   1.886090   7.609490   0.670127   0.627941   2.441430  12.827200  -6.442750  -3.503420   3.273130  -0.000000   0.000000   0.000000   2.945350   6.972400  -8.368350  -0.995879   6.246590  -9.721920  -9.388980  -1.226030  -2.773250  -0.000000   0.000000   0.000000
 -1.496860  89.988800   2.346050  -1.014180  -8.486250   2.794660   0.285637   5.360250  -1.462540   0.713996  10.711300  -2.971110   4.997210 -11.078200   0.962373   9.092810 -21.944800  30.403800  -4.917610  -5.154100  -1.351760 -38.232700  21.464400 -78.420200  -7.462990 -14.560600 -112.140000  27.048400 -47.612900  12.804300  64.472600  45.797000 -92.310800 -11.035100  -0.000524   0.000784  -0.517591  -0.001452  -0.000045 -10.202600   2.959950 -15.970900  -8.694330  -0.000405  -0.003003  -6.086020  -0.000560  -0.003705 -19.733300   2.059820  -5.708680 -19.844700  -0.001510  -0.002099 -13.216600   0.008805  -0.001450 -10.387300   1.101750  -5.966400 -10.444500  -0.001995   0.000488  -6.956070  -0.001600  -0.000521 -16.861500   1.776730  -5.801080 -25.433300  -0.002940   0.000125 -16.938500  -0.002475  -0.000487  11.409700  -0.659491   8.430980  70.312600  15.183500  -1.365400   0.987442  -3.894220  15.897200 -24.989100 -18.405600   1.479880 -36.502800  31.974000  67.772600  32.659700   0.029211  -0.016338  11.329900   0.016135   0.010536  32.804600   1.884800   2.915370  26.879300  -0.054199  -0.010994  18.815500  -0.038509   0.003161  28.094100  -1.410310  -2.636230  32.859800  -0.044579  -0.014340  21.884700  -0.030469  -0.003033  27.824600  -5.117120  -9.592590  33.830700  -0.028234  -0.003716  22.531200  -0.020835   0.001237  37.397200  -6.646890  -8.609240  56.847000  -0.025158   0.044460  37.860100   0.002028   0.033404   1.887300   7.633010   0.659295   0.633433   2.489950  12.816300  -6.439390  -3.515640   3.270300   0.000000   0.000000   0.000000   2.961440   7.022000  -8.363400  -0.998750   6.255500  -9.761130  -9.401310  -1.238120  -2.775100  -0.000000   0.000000   0.000000
